<svg width="796" height="381" viewBox="0 0 796 381" fill="none" xmlns="http://www.w3.org/2000/svg">
<rect width="796" height="381" fill="#1E1E1E"/>
<rect width="796" height="381" fill="white"/>
<circle cx="28.3392" cy="197.339" r="13.3392" fill="#7DC1B8"/>
<circle cx="73.9222" cy="197.339" r="13.3392" fill="#8AA355"/>
<line x1="41.6785" y1="196.928" x2="60.5831" y2="196.928" stroke="black"/>
<circle cx="149.339" cy="198.339" r="13.3392" fill="#7DC1B8"/>
<circle cx="194.922" cy="198.339" r="13.3392" fill="#8AA355"/>
<line x1="162.678" y1="197.928" x2="181.583" y2="197.928" stroke="black"/>
<circle cx="104.339" cy="313.339" r="13.3392" fill="#7DC1B8"/>
<circle cx="149.922" cy="313.339" r="13.3392" fill="#8AA355"/>
<line x1="117.678" y1="312.928" x2="136.583" y2="312.928" stroke="black"/>
<circle r="13.3392" transform="matrix(-1 0 0 1 253.922 350.339)" fill="#7DC1B8"/>
<circle r="13.3392" transform="matrix(-1 0 0 1 208.339 350.339)" fill="#8AA355"/>
<line y1="-0.5" x2="18.9046" y2="-0.5" transform="matrix(-1 0 0 1 240.583 350.428)" stroke="black"/>
<circle cx="580.339" cy="98.3392" r="13.3392" fill="#7DC1B8"/>
<circle cx="625.922" cy="98.3392" r="13.3392" fill="#8AA355"/>
<line x1="593.678" y1="97.9276" x2="612.583" y2="97.9276" stroke="black"/>
<circle r="13.3392" transform="matrix(-1 0 0 1 643.922 185.339)" fill="#7DC1B8"/>
<circle r="13.3392" transform="matrix(-1 0 0 1 598.339 185.339)" fill="#8AA355"/>
<line y1="-0.5" x2="18.9046" y2="-0.5" transform="matrix(-1 0 0 1 630.583 185.428)" stroke="black"/>
<circle cx="585.339" cy="58.3392" r="13.3392" fill="#7DC1B8"/>
<circle cx="630.922" cy="58.3392" r="13.3392" fill="#8AA355"/>
<line x1="598.678" y1="57.9276" x2="617.583" y2="57.9276" stroke="black"/>
<circle r="13.3392" transform="matrix(-1 0 0 1 253.922 39.3392)" fill="#7DC1B8"/>
<circle r="13.3392" transform="matrix(-1 0 0 1 208.339 39.3392)" fill="#8AA355"/>
<line y1="-0.5" x2="18.9046" y2="-0.5" transform="matrix(-1 0 0 1 240.583 39.4276)" stroke="black"/>
<circle cx="553.339" cy="350.339" r="13.3392" fill="#7DC1B8"/>
<circle cx="598.922" cy="350.339" r="13.3392" fill="#8AA355"/>
<line x1="566.678" y1="349.928" x2="585.583" y2="349.928" stroke="black"/>
<circle cx="90.3392" cy="154.339" r="13.3392" fill="#8AA355"/>
<circle cx="135.922" cy="154.339" r="13.3392" fill="#8AA355"/>
<line x1="103.678" y1="153.928" x2="122.583" y2="153.928" stroke="black"/>
<circle cx="598.339" cy="314.339" r="13.3392" fill="#8AA355"/>
<circle cx="643.922" cy="314.339" r="13.3392" fill="#8AA355"/>
<line x1="611.678" y1="313.928" x2="630.583" y2="313.928" stroke="black"/>
<circle cx="679.339" cy="95.3392" r="13.3392" fill="#8AA355"/>
<circle cx="724.922" cy="95.3392" r="13.3392" fill="#8AA355"/>
<line x1="692.678" y1="94.9276" x2="711.583" y2="94.9276" stroke="black"/>
<circle cx="669.339" cy="233.339" r="13.3392" fill="#8AA355"/>
<circle cx="714.922" cy="233.339" r="13.3392" fill="#8AA355"/>
<line x1="682.678" y1="232.928" x2="701.583" y2="232.928" stroke="black"/>
<circle cx="526.339" cy="26.3392" r="13.3392" fill="#8AA355"/>
<circle cx="571.922" cy="26.3392" r="13.3392" fill="#8AA355"/>
<line x1="539.678" y1="25.9276" x2="558.583" y2="25.9276" stroke="black"/>
<circle cx="41.3392" cy="111.339" r="13.3392" fill="#8AA355"/>
<circle cx="86.9222" cy="111.339" r="13.3392" fill="#8AA355"/>
<line x1="54.6785" y1="110.928" x2="73.5831" y2="110.928" stroke="black"/>
<circle cx="149.339" cy="273.339" r="13.3392" fill="#7DC1B8"/>
<circle cx="194.922" cy="273.339" r="13.3392" fill="#7DC1B8"/>
<line x1="162.678" y1="272.928" x2="181.583" y2="272.928" stroke="black"/>
<circle cx="59.3392" cy="246.339" r="13.3392" fill="#7DC1B8"/>
<circle cx="104.922" cy="246.339" r="13.3392" fill="#7DC1B8"/>
<line x1="72.6785" y1="245.928" x2="91.5831" y2="245.928" stroke="black"/>
<circle cx="643.339" cy="274.339" r="13.3392" fill="#7DC1B8"/>
<circle cx="688.922" cy="274.339" r="13.3392" fill="#7DC1B8"/>
<line x1="656.678" y1="273.928" x2="675.583" y2="273.928" stroke="black"/>
<circle cx="714.339" cy="187.339" r="13.3392" fill="#7DC1B8"/>
<circle cx="759.922" cy="187.339" r="13.3392" fill="#7DC1B8"/>
<line x1="727.678" y1="186.928" x2="746.583" y2="186.928" stroke="black"/>
<circle cx="669.339" cy="141.339" r="13.3392" fill="#7DC1B8"/>
<circle cx="714.922" cy="141.339" r="13.3392" fill="#7DC1B8"/>
<line x1="682.678" y1="140.928" x2="701.583" y2="140.928" stroke="black"/>
<circle cx="131.339" cy="84.3392" r="13.3392" fill="#7DC1B8"/>
<circle cx="176.922" cy="84.3392" r="13.3392" fill="#7DC1B8"/>
<line x1="144.678" y1="83.9276" x2="163.583" y2="83.9276" stroke="black"/>
<circle cx="177.339" cy="127.339" r="13.3392" fill="#7DC1B8"/>
<circle cx="222.922" cy="127.339" r="13.3392" fill="#7DC1B8"/>
<line x1="190.678" y1="126.928" x2="209.583" y2="126.928" stroke="black"/>
</svg>
